<svg width="400" height="80" viewBox="0 0 400 80" fill="none" xmlns="http://www.w3.org/2000/svg">
  <defs>
    <linearGradient id="skygenyxTextGradient" x1="0" y1="0" x2="400" y2="80" gradientUnits="userSpaceOnUse">
      <stop stop-color="#00CFFF" />
      <stop offset="1" stop-color="#7F00FF" />
    </linearGradient>
  </defs>
  <!-- S -->
  <rect x="10" y="20" width="30" height="10" fill="url(#skygenyxTextGradient)" />
  <rect x="10" y="30" width="10" height="10" fill="url(#skygenyxTextGradient)" />
  <rect x="10" y="40" width="30" height="10" fill="url(#skygenyxTextGradient)" />
  <rect x="30" y="50" width="10" height="10" fill="url(#skygenyxTextGradient)" />
  <rect x="10" y="60" width="30" height="10" fill="url(#skygenyxTextGradient)" />
  <!-- K -->
  <rect x="50" y="20" width="10" height="50" fill="url(#skygenyxTextGradient)" />
  <rect x="60" y="45" width="20" height="10" transform="rotate(-45 70 50)" fill="url(#skygenyxTextGradient)" />
  <rect x="60" y="35" width="20" height="10" transform="rotate(45 70 40)" fill="url(#skygenyxTextGradient)" />
  <!-- Y -->
  <rect x="90" y="20" width="10" height="20" fill="url(#skygenyxTextGradient)" />
  <rect x="110" y="20" width="10" height="20" fill="url(#skygenyxTextGradient)" />
  <rect x="100" y="40" width="10" height="30" fill="url(#skygenyxTextGradient)" />
  <!-- G -->
  <rect x="130" y="20" width="30" height="10" fill="url(#skygenyxTextGradient)" />
  <rect x="130" y="30" width="10" height="30" fill="url(#skygenyxTextGradient)" />
  <rect x="130" y="60" width="30" height="10" fill="url(#skygenyxTextGradient)" />
  <rect x="150" y="50" width="10" height="10" fill="url(#skygenyxTextGradient)" />
  <rect x="150" y="40" width="10" height="10" fill="url(#skygenyxTextGradient)" />
  <!-- E -->
  <rect x="180" y="20" width="30" height="10" fill="url(#skygenyxTextGradient)" />
  <rect x="180" y="30" width="10" height="40" fill="url(#skygenyxTextGradient)" />
  <rect x="190" y="40" width="20" height="10" fill="url(#skygenyxTextGradient)" />
  <rect x="190" y="60" width="20" height="10" fill="url(#skygenyxTextGradient)" />
  <!-- N -->
  <rect x="220" y="20" width="10" height="50" fill="url(#skygenyxTextGradient)" />
  <rect x="240" y="20" width="10" height="50" fill="url(#skygenyxTextGradient)" />
  <rect x="220" y="35" width="30" height="10" transform="rotate(20 235 40)" fill="url(#skygenyxTextGradient)" />
  <!-- Y -->
  <rect x="270" y="20" width="10" height="20" fill="url(#skygenyxTextGradient)" />
  <rect x="290" y="20" width="10" height="20" fill="url(#skygenyxTextGradient)" />
  <rect x="280" y="40" width="10" height="30" fill="url(#skygenyxTextGradient)" />
  <!-- X -->
  <rect x="310" y="20" width="10" height="50" transform="rotate(45 315 45)" fill="url(#skygenyxTextGradient)" />
  <rect x="320" y="20" width="10" height="50" transform="rotate(-45 325 45)" fill="url(#skygenyxTextGradient)" />
</svg>

